<?xml version="1.0" encoding="UTF-8"?>
<svg width="32px" height="32px" viewBox="0 0 32 32" version="1.1" xmlns="http://www.w3.org/2000/svg" xmlns:xlink="http://www.w3.org/1999/xlink">
    <g fill="#FFFFFF">
        <path d="M16,0 C24.836556,0 32,7.163444 32,16 C32,24.836556 24.836556,32 16,32 C7.163444,32 0,24.836556 0,16 C0,7.163444 7.163444,0 16,0 Z M16,0.5 C7.43958638,0.5 0.5,7.43958638 0.5,16 C0.5,24.5604136 7.43958638,31.5 16,31.5 C24.5604136,31.5 31.5,24.5604136 31.5,16 C31.5,7.43958638 24.5604136,0.5 16,0.5 Z M16,6 C21.5228475,6 26,10.4771525 26,16 C26,21.5228475 21.5228475,26 16,26 C10.4771525,26 6,21.5228475 6,16 C6,10.4771525 10.4771525,6 16,6 Z M18.1127662,17.687422 L17.9623944,17.7430287 C15.8043037,18.5525749 13.4478555,20.2363964 10.9068697,22.8034272 C12.3261018,23.869654 14.0894383,24.5 16,24.5 C17.4722388,24.5 18.8570565,24.1257055 20.0644854,23.4670843 C19.4276413,21.2988658 18.7768333,19.3724917 18.1127662,17.687422 Z M19.7464736,17.2216503 L19.558841,17.2662149 C20.1758515,18.8444708 20.7790549,20.6184734 21.3689356,22.5887087 C23.0031867,21.2571541 24.132429,19.3280238 24.4249715,17.1343194 C23.0831437,16.788747 21.5250331,16.8147871 19.7464736,17.2216503 Z M16.6943505,14.4988459 L16.6047259,14.5287287 C14.4902647,15.2205896 11.6609235,15.6163358 8.10680243,15.7256117 L7.503846,15.7418251 C7.50128805,15.8275705 7.5,15.9136348 7.5,16 C7.5,18.243 8.36879119,20.283083 9.78821807,21.8020934 C12.5268891,19.0247333 15.1052208,17.1881467 17.5383592,16.3005628 C17.4421114,16.075967 17.3449748,15.8578981 17.2475682,15.6448547 C17.0785853,15.2752627 16.8941782,14.8932509 16.6943505,14.4988459 Z M22.9142367,11.054858 L22.7723946,11.1708223 C21.4247446,12.2436226 19.8656081,13.1687656 18.0965958,13.9470288 C18.2807754,14.3152175 18.4526094,14.6730842 18.6117428,15.021134 C18.7363904,15.2937576 18.8604897,15.5740076 18.9840447,15.8618876 C21.0286386,15.3413387 22.8652293,15.2528265 24.4911601,15.6077209 C24.4143156,13.9140485 23.8414112,12.3489171 22.9142367,11.054858 Z M12.8460728,8.10562309 L12.6360483,8.19162382 C10.1367388,9.26980419 8.25777021,11.5128275 7.68313116,14.236705 C11.1979125,14.1501951 13.9670676,13.785828 15.9808687,13.1536694 C15.1360275,11.6317654 14.0914208,9.94863857 12.8460728,8.10562309 Z M16,7.5 C15.4369506,7.5 14.8866876,7.55474569 14.3542439,7.65920448 C15.4233575,9.25960452 16.3433184,10.7423987 17.114271,12.1093598 L17.395,12.615 L17.4599343,12.5883509 C19.1720022,11.8381653 20.6639734,10.9475822 21.9376276,9.91746057 C20.405001,8.42156671 18.3101222,7.5 16,7.5 Z" id="Shape"></path>
    </g>
</svg>