<?xml version="1.0" encoding="UTF-8"?>
<svg width="100%" height="100%" viewBox="0 0 1400 600" preserveAspectRatio="none" version="1.1" xmlns="http://www.w3.org/2000/svg" xmlns:xlink="http://www.w3.org/1999/xlink">
    <title>src / img / hero / connected-fitness copy</title>
    <defs>
        <rect id="path-1" x="0" y="0" width="1400" height="600"></rect>
    </defs>
    <g id="Symbols" stroke="none" stroke-width="1" fill="none" fill-rule="evenodd">
        <g id="src-/-img-/-hero-/-connected-fitness-copy">
            <mask id="mask-2" fill="white">
                <use xlink:href="#path-1"></use>
            </mask>
            <use id="Rectangle" fill="#7547E5" opacity="0.847935268" xlink:href="#path-1"></use>
            <path d="M0,23.6714445 L808.679688,-9.76236101 L1046.53125,126.976162 C1147.6752,149.058722 1221.83145,163.065714 1269,168.997137 C1316.16855,174.92856 1382.37688,174.92856 1467.625,168.997137 L1400,508.237639 L0,508.237639 L0,23.6714445 Z" id="Rectangle-Copy" fill="#4000FF" opacity="0.203450521" mask="url(#mask-2)"></path>
            <polygon id="Rectangle-Copy-4" fill="#0026FF" opacity="0.409598214" mask="url(#mask-2)" points="-93 25.4943384 5 -33.762361 510.459346 -20.3305079 809.875 80.7421875 927.257813 131.453125 1170.5625 249.237639 1559.90382 339.886795 1882.5136 606.237639 -93 510.245502"></polygon>
            <path d="M-93,166.682636 L5,-28.762361 L625.085937,180.377156 L1064.33594,243.312016 C1307.02156,320.55439 1472.21085,374.330748 1559.90382,404.641089 C1755.38979,472.209178 1862.92638,539.408029 1882.5136,606.237639 L-93,533.582777 L-93,166.682636 Z" id="Rectangle-Copy-5" fill="#009EFF" opacity="0.222981771" mask="url(#mask-2)"></path>
            <polygon id="Rectangle-Copy-8" fill="#009EFF" opacity="0.222981771" mask="url(#mask-2)" points="-93 297.958935 -36.265625 23.237639 135.117188 139.590188 390.710938 165.44631 529.265625 265.638782 629.432834 316.141857 770.851562 303.034398 1496.73931 469.379335 1882.5136 606.237639 -93 481.567813"></polygon>
            <polygon id="Rectangle-Copy-11" fill="#009EFF" opacity="0.222981771" mask="url(#mask-2)" points="-80.3411881 270.52902 -104 -19.8341506 8.16023602 -35.762361 248.015625 101.572316 448.976562 176.26311 582.577382 297.974295 689.242187 403.893599 790 446.196136 -80.3411881 475.237639"></polygon>
            <polygon id="Rectangle-Copy-10" fill="#009EFF" opacity="0.222981771" mask="url(#mask-2)" points="-28 276.929624 -72.6171875 -28.762361 37.21875 139.700937 173.523438 242.992076 359.977764 380.325443 619.84375 455.223089 -28 481.237639"></polygon>
            <polygon id="Rectangle-Copy-6" fill="#009EFF" opacity="0.222981771" mask="url(#mask-2)" points="-93 344.237639 225.46875 429.763207 486.234375 429.763207 770.851562 373.262666 1496.73931 501.078605 1882.5136 606.237639 -93 510.443975"></polygon>
            <polygon id="Rectangle-Copy-7" fill="#009EFF" opacity="0.222981771" mask="url(#mask-2)" points="-25.6171875 628.237639 199.679897 537.719385 440.085938 555.797061 606.351563 483.698821 829.779785 433.237639 1424.08594 555.797061 1882.5136 606.390986 -93 624.892788"></polygon>
            <path d="M-1.3649526e-11,170.07317 L-44.9765625,-25.7235408 L488.320312,-48.7578125 L554.84375,52.09375 L854.382813,116.476563 L1046.53125,261.692674 C1147.6752,281.277386 1221.83145,293.699991 1269,298.960486 C1316.16855,304.220982 1382.37688,313.074835 1467.625,325.522047 L1400,599.828125 L-1.3649526e-11,599.828125 L-1.3649526e-11,170.07317 Z" id="Rectangle-Copy-21" fill="#292BC4" opacity="0.601260231" mask="url(#mask-2)"></path>
            <path d="M-93,148.365233 L-33.9921875,-69.78125 L302.28125,-9.76236101 L429.382813,76.4140625 L703.331925,132.089408 L903.140625,259.342678 C1253.28978,320.201936 1472.21085,366.556204 1559.90382,398.405483 C1755.38979,469.404189 1862.92638,540.014907 1882.5136,610.237639 L-93,599.828125 L-93,148.365233 Z" id="Rectangle-Copy-20" fill="#00C4FF" opacity="0.28297061" mask="url(#mask-2)"></path>
            <polygon id="Rectangle-Copy-19" fill="#009EFF" opacity="0.222981771" mask="url(#mask-2)" points="-93 260.670274 5 105.237639 625.085937 271.561192 790 249.237639 1012.39844 378.237639 1357.52344 402.237639 1566.97656 357.737639 1882.5136 610.237639 -93 610.237639"></polygon>
            <polygon id="Rectangle-Copy-18" fill="#004AFF" opacity="0.333565848" mask="url(#mask-2)" points="-93 364.883748 -36.265625 146.237639 135.117188 238.840697 390.710938 259.419154 529.265625 339.160676 629.432834 379.355233 711.324219 339.160676 911.054688 344.237639 1218.32813 501.314392 1496.73931 501.314392 1882.5136 610.237639 -93 600"></polygon>
            <polygon id="Rectangle-Copy-17" fill="#007CFF" opacity="0.222981771" mask="url(#mask-2)" points="-80.3411881 343.191831 -104 111.9241 8.16023602 99.237639 248.015625 208.621619 448.976562 268.111155 582.577382 365.051375 689.242187 449.413716 790 483.106736 1113.64844 658.664063 -80.3411881 706.117187"></polygon>
            <polygon id="Rectangle-Copy-27" fill="#0A21BD" opacity="0.301967076" mask="url(#mask-2)" points="-222.136111 416.191831 -237 184.9241 -166.534192 172.237639 -15.8426077 281.621619 110.413143 341.111155 194.349215 438.051375 261.362462 522.413716 324.664581 556.106736 528 731.664063 -222.136111 779.117187"></polygon>
            <polygon id="Rectangle-Copy-28" fill="#0A21BD" opacity="0.301967076" mask="url(#mask-2)" points="-222.136111 518.979026 -237 353.210607 -166.534192 344.117188 -15.8426077 422.521595 110.413143 465.16259 194.349215 534.647541 261.362462 595.116902 324.664581 619.267433 528 745.103668 -222.136111 779.117188"></polygon>
            <polygon id="Rectangle-Copy-16" fill="#235FE8" opacity="0.222981771" mask="url(#mask-2)" points="-12.8879947 401.938684 -72.6171875 105.237639 74.4205854 268.746134 256.892171 368.999298 506.499263 502.293449 854.382813 574.988222 -12.8879947 600.237639"></polygon>
            <polygon id="Rectangle-Copy-15" fill="#009EFF" opacity="0.222981771" mask="url(#mask-2)" points="-93 402.237639 225.46875 470.1358 486.234375 470.1358 770.851562 425.280409 989.320313 481.237639 1090.20039 469.922335 1187.59375 526.752605 1496.73931 526.752605 1882.5136 610.237639 -93 600"></polygon>
            <polygon id="Rectangle-Copy-14" fill="#009EFF" opacity="0.222981771" mask="url(#mask-2)" points="-25.6171875 628.237639 199.679897 556.287232 440.085938 570.656667 606.351563 513.34781 842.109375 513.34781 1056.34375 570.656667 1424.08594 570.656667 1882.5136 610.872351 -93 625.578911"></polygon>
        </g>
    </g>
</svg>