<?xml version="1.0" encoding="UTF-8"?>
<svg width="32px" height="32px" viewBox="0 0 32 32" version="1.1" xmlns="http://www.w3.org/2000/svg" xmlns:xlink="http://www.w3.org/1999/xlink">
    <g fill="#FFFFFF">
        <path d="M16,0 C24.836556,0 32,7.163444 32,16 C32,24.836556 24.836556,32 16,32 C7.163444,32 0,24.836556 0,16 C0,7.163444 7.163444,0 16,0 Z M16,0.5 C7.43958638,0.5 0.5,7.43958638 0.5,16 C0.5,24.5604136 7.43958638,31.5 16,31.5 C24.5604136,31.5 31.5,24.5604136 31.5,16 C31.5,7.43958638 24.5604136,0.5 16,0.5 Z M23,9.25 C24.4625318,9.25 25.6584043,10.3917046 25.7449812,11.8324777 L25.75,12 L25.75,20 C25.75,21.4625318 24.6082954,22.6584043 23.1675223,22.7449812 L23,22.75 L9,22.75 C7.53746816,22.75 6.34159572,21.6082954 6.25501879,20.1675223 L6.25,20 L6.25,12 C6.25,10.5374682 7.3917046,9.34159572 8.83247767,9.25501879 L9,9.25 L23,9.25 Z M7.82063346,11.5847334 C7.79013457,11.6713526 7.76890822,11.7623424 7.75814608,11.8565113 L7.75,12 L7.75,20 C7.75,20.6472087 8.24187466,21.1795339 8.87219476,21.2435464 L9,21.25 L23,21.25 C23.6472087,21.25 24.1795339,20.7581253 24.2435464,20.1278052 L24.25,20 L24.25,12 C24.25,11.8581769 24.2263811,11.7218702 24.1828621,11.594799 L15.999638,18.5850777 L7.82063346,11.5847334 Z M23,10.75 L9,10.75 C8.9283199,10.75 8.85804897,10.7560334 8.78966737,10.7676201 L16,16.939 L23.2212707,10.7695236 L23.1120186,10.7549511 L23,10.75 Z" id="email"></path>
    </g>
</svg>