<?xml version="1.0" encoding="UTF-8"?>
<svg width="32px" height="32px" viewBox="0 0 32 32" version="1.1" xmlns="http://www.w3.org/2000/svg" xmlns:xlink="http://www.w3.org/1999/xlink">
    <g id="Group-Copy" fill="#FFFFFF" fill-rule="nonzero">
        <path d="M16,0 C24.836556,0 32,7.163444 32,16 C32,24.836556 24.836556,32 16,32 C7.163444,32 0,24.836556 0,16 C0,7.163444 7.163444,0 16,0 Z M16,0.5 C7.43958638,0.5 0.5,7.43958638 0.5,16 C0.5,24.5604136 7.43958638,31.5 16,31.5 C24.5604136,31.5 31.5,24.5604136 31.5,16 C31.5,7.43958638 24.5604136,0.5 16,0.5 Z M11.3631592,8.52905273 L15.8694458,18.0339355 L19.8258057,8.52905273 L25.3930054,8.52905273 L25.3930054,8.92956543 L23.8066406,10.2683105 L23.8066406,22.0979004 L25.4136963,23.7049561 L25.4136963,24.0371704 L17.4714355,24.0371704 L17.4714355,23.7049561 L19.2946777,22.0979004 L19.2946777,13.0539551 L14.7527466,24.0371704 L14.1251831,24.0371704 L9.05151367,13.0539551 L9.05151367,20.8630371 L11.2373047,23.7049561 L11.2373047,24.0371704 L5.24969482,24.0371704 L5.24969482,23.7049561 L7.69628906,20.8630371 L7.69628906,11.3134766 L5.50585937,9.01489258 L5.50585937,8.52905273 L11.3631592,8.52905273 Z" id="Shape"></path>
    </g>
</svg>