<?xml version="1.0" encoding="UTF-8"?>
<svg width="60px" height="60px" viewBox="0 0 60 60" version="1.1" xmlns="http://www.w3.org/2000/svg" xmlns:xlink="http://www.w3.org/1999/xlink">
    <g id="ui-/-next" fill="#000000" fill-rule="nonzero">
        <path shape-rendering="auto" d="M30,0 C46.5685425,0 60,13.4314575 60,30 C60,46.5685425 46.5685425,60 30,60 C13.4314575,60 0,46.5685425 0,30 C0,13.4314575 13.4314575,0 30,0 Z M30,0.5 C13.7075999,0.5 0.5,13.7075999 0.5,30 C0.5,46.2924001 13.7075999,59.5 30,59.5 C46.2924001,59.5 59.5,46.2924001 59.5,30 C59.5,13.7075999 46.2924001,0.5 30,0.5 Z M41.1240801,29.4696699 L41.1612533,29.5096345 L41.2194676,29.58626 L41.2633176,29.6617005 L41.2633176,29.6617005 L41.2876232,29.7148008 L41.2876232,29.7148008 L41.3115701,29.7822232 L41.3115701,29.7822232 C41.3325299,29.8511877 41.34375,29.9242835 41.34375,30 L41.3357558,30.1098957 L41.3357558,30.1098957 L41.3081607,30.2288146 L41.3081607,30.2288146 L41.2743855,30.3154446 L41.2743855,30.3154446 L41.2068257,30.4321748 L41.2068257,30.4321748 L41.1573479,30.4948454 L41.1573479,30.4948454 L32.85824,39.2328315 C32.5729723,39.5331566 32.0982554,39.5453631 31.7979303,39.2600954 C31.5249074,39.0007612 31.4899991,38.5848574 31.7002344,38.285743 L31.7706663,38.1997857 L38.84775,30.7493086 L20.59375,30.75 C20.1795364,30.75 19.84375,30.4142136 19.84375,30 C19.84375,29.6203042 20.1259039,29.306509 20.4919794,29.2568466 L20.59375,29.25 L38.78275,29.2493086 L31.7839823,22.246498 C31.5177864,21.9801608 31.4936909,21.5634907 31.7116233,21.269937 L31.7842638,21.1858378 C32.050601,20.9196419 32.4672711,20.8955464 32.7608247,21.1134788 L32.8449239,21.1861192 L41.1240801,29.4696699 Z" id="next"></path>
    </g>
</svg>